<svg width="218" height="24" viewBox="0 0 218 24" fill="none" xmlns="http://www.w3.org/2000/svg">
<path fill-rule="evenodd" clip-rule="evenodd" d="M69.8319 21.5107C69.8319 21.9786 69.5962 22.2126 69.1248 22.2126H60.82C60.6194 22.2126 60.4564 22.1541 60.331 22.0371C60.2056 21.9202 60.1429 21.7549 60.1429 21.5413C60.1429 21.3582 60.1856 21.2107 60.2708 21.0988C60.3561 20.9869 60.489 20.8954 60.6695 20.8242L61.3164 20.6258C61.4769 20.575 61.6023 20.4783 61.6926 20.3359C61.7828 20.1935 61.828 19.9901 61.828 19.7256V10.9068C61.828 10.7644 61.7929 10.6449 61.7227 10.5483C61.6524 10.4516 61.5221 10.3626 61.3315 10.2813L60.4589 9.99136C60.2282 9.87947 60.0627 9.75995 59.9624 9.63281C59.8621 9.50566 59.8119 9.35054 59.8119 9.16746C59.8119 8.98437 59.8746 8.83433 60 8.71736L60.0493 8.67624C60.1694 8.58668 60.326 8.5419 60.5191 8.5419H61.8393L61.8289 8.45274C61.8007 8.27442 61.7302 8.10325 61.6173 7.93923C61.4669 7.72054 61.2964 7.47388 61.1058 7.19924C60.9152 6.92461 60.7447 6.59657 60.5943 6.21514C60.4438 5.8337 60.3686 5.36326 60.3686 4.80382C60.3686 3.47133 60.82 2.40585 61.7227 1.60738C62.6254 0.808905 63.9092 0.409668 65.5742 0.409668C66.6474 0.409668 67.5375 0.582586 68.2446 0.928422C68.9517 1.27426 69.4808 1.73452 69.8319 2.30922C70.1829 2.88392 70.3584 3.51202 70.3584 4.19352C70.3584 4.99708 70.1503 5.59975 69.7341 6.00153C69.3178 6.40331 68.7837 6.6042 68.1318 6.6042C67.4096 6.6042 66.8279 6.37025 66.3866 5.90236C65.9453 5.43446 65.7246 4.81399 65.7246 4.04095V2.68303C65.7246 2.32702 65.6544 2.0651 65.514 1.89727C65.3736 1.72944 65.1579 1.64552 64.867 1.64552C64.4959 1.64552 64.2151 1.77267 64.0245 2.02696C63.834 2.28125 63.7387 2.64743 63.7387 3.1255C63.7387 3.61374 63.8515 4.07146 64.0772 4.49867C64.3029 4.92588 64.5812 5.32512 64.9122 5.69638C65.2432 6.06765 65.5742 6.42365 65.9051 6.7644C66.2361 7.10515 66.5145 7.44082 66.7401 7.7714L66.8045 7.87049C66.9263 8.06854 67.0076 8.26566 67.0482 8.46187L67.0619 8.5419H69.2903C69.5209 8.5419 69.699 8.59021 69.8243 8.68685C69.9497 8.78348 70.0124 8.93351 70.0124 9.13694C70.0124 9.44209 69.882 9.6913 69.6212 9.88456C69.3605 10.0778 68.9492 10.1744 68.3876 10.1744H67.3194V19.6799C67.3194 19.9647 67.362 20.1833 67.4473 20.3359C67.5325 20.4885 67.6704 20.58 67.861 20.6106L69.1549 20.8089C69.3855 20.8394 69.556 20.9132 69.6664 21.0301C69.7767 21.1471 69.8319 21.3073 69.8319 21.5107ZM40.2084 21.8617C39.3057 22.2991 38.2526 22.5177 37.049 22.5177C35.7752 22.5177 34.6343 22.2482 33.6262 21.7091C32.6182 21.17 31.8234 20.3893 31.2416 19.3671C30.6599 18.3448 30.369 17.1013 30.369 15.6366C30.369 14.2228 30.6724 12.9589 31.2792 11.8451C31.886 10.7313 32.7311 9.8515 33.8143 9.2056C34.8975 8.5597 36.1613 8.23675 37.6056 8.23675C38.8393 8.23675 39.8799 8.41984 40.7275 8.78602C41.575 9.1522 42.2219 9.64807 42.6683 10.2736C43.1146 10.8992 43.3377 11.5985 43.3377 12.3715C43.3377 13.1853 43.1046 13.8235 42.6382 14.2863C42.1718 14.7491 41.5374 14.9806 40.735 14.9806C39.9125 14.9806 39.2882 14.7441 38.8619 14.2711C38.4356 13.7981 38.2225 13.1497 38.2225 12.3258V11.3493C38.2225 10.8509 38.1322 10.4745 37.9517 10.2202C37.7711 9.96593 37.5154 9.83878 37.1844 9.83878C36.8534 9.83878 36.555 9.97356 36.2892 10.2431C36.0234 10.5127 35.8178 10.917 35.6724 11.4561C35.5269 11.9952 35.4542 12.6614 35.4542 13.4548C35.4542 14.594 35.6222 15.5502 35.9582 16.3232C36.2942 17.0963 36.7531 17.676 37.3348 18.0626C37.9166 18.4491 38.5785 18.6423 39.3208 18.6423C40.063 18.6423 40.6848 18.533 41.1863 18.3143C41.6878 18.0956 42.074 17.7269 42.3448 17.2081C42.4952 17.0657 42.6131 16.9742 42.6983 16.9335C42.7836 16.8928 42.8663 16.8725 42.9466 16.8725C43.0469 16.8827 43.1296 16.931 43.1948 17.0174C43.26 17.1039 43.2876 17.2387 43.2776 17.4217C43.1973 18.4186 42.8914 19.2984 42.3598 20.0613C41.8282 20.8242 41.1111 21.4243 40.2084 21.8617ZM55.5016 21.5565C54.3732 22.177 53.0618 22.4872 51.5673 22.4872C50.113 22.4872 48.8367 22.1846 47.7384 21.5794C46.6401 20.9742 45.7851 20.1376 45.1732 19.0696C44.5614 18.0015 44.2555 16.7657 44.2555 15.362C44.2555 14.0193 44.5764 12.8114 45.2184 11.7383C45.8603 10.6652 46.7479 9.81336 47.8813 9.18271C49.0147 8.55207 50.3186 8.23675 51.793 8.23675C53.2574 8.23675 54.5362 8.5419 55.6295 9.1522C56.7227 9.7625 57.5753 10.6067 58.1871 11.6849C58.7989 12.7631 59.1048 14.0092 59.1048 15.423C59.1048 16.7657 58.7864 17.9685 58.1495 19.0314C57.5126 20.0943 56.6299 20.9361 55.5016 21.5565ZM52.7107 20.9004C52.3998 20.9615 52.0964 20.8242 51.8005 20.4885C51.5046 20.1528 51.2238 19.5883 50.958 18.7949C50.6922 18.0015 50.439 16.9589 50.1982 15.6671C49.9675 14.3753 49.8372 13.3124 49.8071 12.4783C49.777 11.6443 49.8372 11.0136 49.9876 10.5864C50.1381 10.1592 50.3687 9.90999 50.6797 9.83878C50.9906 9.77775 51.294 9.91507 51.5899 10.2507C51.8858 10.5864 52.1691 11.1509 52.4399 11.9443C52.7107 12.7377 52.9665 13.7803 53.2072 15.0721C53.4479 16.3639 53.5808 17.4294 53.6059 18.2685C53.631 19.1077 53.5658 19.7409 53.4103 20.1681C53.2549 20.5953 53.0217 20.8394 52.7107 20.9004ZM79.6261 22.2126C80.0975 22.2126 80.3332 21.9786 80.3332 21.5107C80.3332 21.3073 80.2781 21.1471 80.1677 21.0301C80.0574 20.9132 79.8869 20.8394 79.6562 20.8089L78.3623 20.6106C78.1718 20.58 78.0339 20.4885 77.9486 20.3359C77.8634 20.1833 77.8207 19.9647 77.8207 19.6799V10.1744H78.8889C79.4506 10.1744 79.8618 10.0778 80.1226 9.88456C80.3834 9.6913 80.5138 9.44209 80.5138 9.13694C80.5138 8.93351 80.4511 8.78348 80.3257 8.68685C80.2003 8.59021 80.0223 8.5419 79.7916 8.5419H77.5633L77.5495 8.46187C77.5089 8.26566 77.4277 8.06854 77.3058 7.87049L77.2415 7.7714C77.0158 7.44082 76.7375 7.10515 76.4065 6.7644C76.0755 6.42365 75.7445 6.06765 75.4135 5.69638C75.0826 5.32512 74.8042 4.92588 74.5785 4.49867C74.3529 4.07146 74.24 3.61374 74.24 3.1255C74.24 2.64743 74.3353 2.28125 74.5259 2.02696C74.7165 1.77267 74.9973 1.64552 75.3684 1.64552C75.6593 1.64552 75.8749 1.72944 76.0153 1.89727C76.1558 2.0651 76.226 2.32702 76.226 2.68303V4.04095C76.226 4.81399 76.4466 5.43446 76.8879 5.90236C77.3293 6.37025 77.911 6.6042 78.6332 6.6042C79.2851 6.6042 79.8192 6.40331 80.2354 6.00153C80.6517 5.59975 80.8598 4.99708 80.8598 4.19352C80.8598 3.51202 80.6843 2.88392 80.3332 2.30922C79.9822 1.73452 79.4531 1.27426 78.746 0.928422C78.0389 0.582586 77.1487 0.409668 76.0755 0.409668C74.4105 0.409668 73.1267 0.808905 72.224 1.60738C71.3213 2.40585 70.87 3.47133 70.87 4.80382C70.87 5.36326 70.9452 5.8337 71.0956 6.21514C71.2461 6.59657 71.4166 6.92461 71.6072 7.19924C71.7977 7.47388 71.9683 7.72054 72.1187 7.93923C72.2315 8.10325 72.3021 8.27442 72.3303 8.45274L72.3406 8.5419H71.0204C70.8273 8.5419 70.6707 8.58668 70.5506 8.67624L70.5014 8.71736C70.376 8.83433 70.3133 8.98437 70.3133 9.16746C70.3133 9.35054 70.3635 9.50566 70.4638 9.63281C70.5641 9.75995 70.7296 9.87947 70.9602 9.99136L71.8328 10.2813C72.0234 10.3626 72.1538 10.4516 72.224 10.5483C72.2942 10.6449 72.3293 10.7644 72.3293 10.9068V19.7256C72.3293 19.9901 72.2842 20.1935 72.1939 20.3359C72.1037 20.4783 71.9783 20.575 71.8178 20.6258L71.1709 20.8242C70.9903 20.8954 70.8574 20.9869 70.7722 21.0988C70.6869 21.2107 70.6443 21.3582 70.6443 21.5413C70.6443 21.7549 70.707 21.9202 70.8324 22.0371C70.9577 22.1541 71.1207 22.2126 71.3213 22.2126H79.6261ZM91.4063 21.7701C90.4334 22.2685 89.31 22.5177 88.0362 22.5177C86.632 22.5177 85.3984 22.2253 84.3352 21.6404C83.272 21.0556 82.442 20.2367 81.8452 19.184C81.2485 18.1312 80.9501 16.9132 80.9501 15.5298C80.9501 14.0753 81.2384 12.8013 81.8152 11.7078C82.3919 10.6144 83.2269 9.7625 84.3201 9.1522C85.4134 8.5419 86.7273 8.23675 88.2619 8.23675C89.5658 8.23675 90.6892 8.49358 91.632 9.00725C92.5748 9.52092 93.2995 10.2177 93.806 11.0975C94.3125 11.9774 94.5657 12.9564 94.5657 14.0346C94.5657 14.5025 94.4404 14.8712 94.1896 15.1408L94.1298 15.2006C93.8827 15.4302 93.5415 15.5451 93.1064 15.5451H86.2288L86.2435 15.6155C86.426 16.4531 86.7377 17.1239 87.1787 17.6277C87.9309 18.4872 88.9339 18.917 90.1877 18.917C90.9901 18.917 91.6997 18.7339 92.3165 18.3677C92.9334 18.0015 93.3471 17.4929 93.5577 16.842C93.6781 16.7097 93.7859 16.6207 93.8812 16.575C93.9765 16.5292 94.0592 16.5063 94.1294 16.5063C94.2297 16.5063 94.315 16.547 94.3852 16.6284C94.4554 16.7097 94.4905 16.847 94.4905 17.0403C94.4905 18.0371 94.2197 18.95 93.6781 19.779C93.1365 20.608 92.3792 21.2717 91.4063 21.7701ZM86.0718 14.322C86.0575 14.088 86.0503 13.8447 86.0503 13.5921C86.0503 12.636 86.1205 11.8833 86.2609 11.334C86.4014 10.7847 86.5819 10.3957 86.8026 10.1668C87.0232 9.93796 87.2689 9.82353 87.5398 9.82353C87.8908 9.82353 88.2193 10.1236 88.5252 10.7237C88.8311 11.3238 88.9841 12.3207 88.9841 13.7142C88.9841 14.1414 88.7935 14.355 88.4124 14.355H86.0737L86.0718 14.322ZM105.789 21.7701C104.816 22.2685 103.693 22.5177 102.419 22.5177C101.015 22.5177 99.7813 22.2253 98.7181 21.6404C97.655 21.0556 96.825 20.2367 96.2282 19.184C95.6314 18.1312 95.333 16.9132 95.333 15.5298C95.333 14.0753 95.6214 12.8013 96.1981 11.7078C96.7748 10.6144 97.6098 9.7625 98.7031 9.1522C99.7964 8.5419 101.11 8.23675 102.645 8.23675C103.949 8.23675 105.072 8.49358 106.015 9.00725C106.958 9.52092 107.682 10.2177 108.189 11.0975C108.695 11.9774 108.949 12.9564 108.949 14.0346C108.949 14.5025 108.823 14.8712 108.573 15.1408L108.513 15.2006C108.266 15.4302 107.924 15.5451 107.489 15.5451H100.612L100.626 15.6155C100.809 16.4531 101.121 17.1239 101.562 17.6277C102.314 18.4872 103.317 18.917 104.571 18.917C105.373 18.917 106.083 18.7339 106.699 18.3677C107.316 18.0015 107.73 17.4929 107.941 16.842C108.061 16.7097 108.169 16.6207 108.264 16.575C108.359 16.5292 108.442 16.5063 108.512 16.5063C108.613 16.5063 108.698 16.547 108.768 16.6284C108.838 16.7097 108.873 16.847 108.873 17.0403C108.873 18.0371 108.603 18.95 108.061 19.779C107.519 20.608 106.762 21.2717 105.789 21.7701ZM100.455 14.322C100.44 14.088 100.433 13.8447 100.433 13.5921C100.433 12.636 100.503 11.8833 100.644 11.334C100.784 10.7847 100.965 10.3957 101.186 10.1668C101.406 9.93796 101.652 9.82353 101.923 9.82353C102.274 9.82353 102.602 10.1236 102.908 10.7237C103.214 11.3238 103.367 12.3207 103.367 13.7142C103.367 14.1414 103.176 14.355 102.795 14.355H100.457L100.455 14.322ZM118.615 22.0219C118.49 22.149 118.307 22.2126 118.066 22.2126H110.543C110.323 22.2126 110.15 22.1516 110.024 22.0295C109.899 21.9074 109.836 21.7396 109.836 21.526C109.836 21.3633 109.874 21.2285 109.949 21.1217C110.024 21.0149 110.127 20.9157 110.258 20.8242L110.604 20.6868C110.734 20.6258 110.824 20.5292 110.874 20.397C110.925 20.2647 110.95 20.046 110.95 19.7409V11.9901C110.95 11.746 110.922 11.5705 110.867 11.4637C110.812 11.3569 110.719 11.273 110.589 11.212L110.197 11.1662C110.057 11.0848 109.954 10.9984 109.889 10.9068C109.824 10.8153 109.791 10.6983 109.791 10.5559C109.791 10.3931 109.841 10.2482 109.942 10.121C110.042 9.9939 110.212 9.88456 110.453 9.79301L114.726 8.55716C114.977 8.45544 115.187 8.38424 115.358 8.34355C115.528 8.30287 115.674 8.28252 115.794 8.28252C115.965 8.28252 116.093 8.34355 116.178 8.46561L116.205 8.50988C116.276 8.63746 116.324 8.8414 116.351 9.12168L116.465 11.4925L116.491 11.405C116.542 11.2399 116.598 11.0814 116.659 10.9297C117.025 10.0193 117.509 9.34292 118.111 8.90045C118.713 8.45798 119.37 8.23675 120.082 8.23675C120.945 8.23675 121.606 8.52664 122.068 9.10643C122.529 9.68621 122.76 10.5661 122.76 11.746C122.76 12.9157 122.519 13.7752 122.038 14.3245C121.556 14.8737 120.934 15.1484 120.172 15.1484C119.43 15.1484 118.881 14.9602 118.525 14.5839C118.169 14.2075 117.981 13.6735 117.961 12.9818L117.946 12.3715C117.936 12.1376 117.89 11.9545 117.81 11.8223C117.73 11.69 117.6 11.6239 117.419 11.6239C117.238 11.6239 117.08 11.718 116.945 11.9062C116.81 12.0943 116.707 12.3817 116.637 12.7682C116.566 13.1547 116.531 13.6481 116.531 14.2482V19.6188C116.531 19.9036 116.576 20.1299 116.667 20.2978C116.757 20.4656 116.897 20.5699 117.088 20.6106L118.216 20.8394C118.427 20.8699 118.577 20.9488 118.668 21.0759C118.758 21.2031 118.803 21.3531 118.803 21.526C118.803 21.7294 118.74 21.8947 118.615 22.0219ZM130.643 22.4872C132.138 22.4872 133.449 22.177 134.578 21.5565C135.706 20.9361 136.589 20.0943 137.226 19.0314C137.863 17.9685 138.181 16.7657 138.181 15.423C138.181 14.0092 137.875 12.7631 137.263 11.6849C136.651 10.6067 135.799 9.7625 134.706 9.1522C133.612 8.5419 132.334 8.23675 130.869 8.23675C129.395 8.23675 128.091 8.55207 126.957 9.18271C125.824 9.81336 124.936 10.6652 124.295 11.7383C123.653 12.8114 123.332 14.0193 123.332 15.362C123.332 16.7657 123.638 18.0015 124.249 19.0696C124.861 20.1376 125.716 20.9742 126.815 21.5794C127.913 22.1846 129.189 22.4872 130.643 22.4872ZM130.877 20.4885C131.173 20.8242 131.476 20.9615 131.787 20.9004C132.098 20.8394 132.331 20.5953 132.486 20.1681C132.642 19.7409 132.707 19.1077 132.682 18.2685C132.657 17.4294 132.524 16.3639 132.283 15.0721C132.043 13.7803 131.787 12.7377 131.516 11.9443C131.245 11.1509 130.962 10.5864 130.666 10.2507C130.37 9.91507 130.067 9.77775 129.756 9.83878C129.445 9.90999 129.214 10.1592 129.064 10.5864C128.913 11.0136 128.853 11.6443 128.883 12.4783C128.913 13.3124 129.044 14.3753 129.274 15.6671C129.515 16.9589 129.768 18.0015 130.034 18.7949C130.3 19.5883 130.581 20.1528 130.877 20.4885ZM150.112 22.5177C150.954 22.5177 151.646 22.3626 152.188 22.0524C152.729 21.7422 153.133 21.3734 153.399 20.9462C153.665 20.519 153.798 20.1274 153.798 19.7714C153.798 19.6188 153.765 19.4917 153.7 19.39C153.635 19.2882 153.547 19.2374 153.437 19.2374C153.386 19.2374 153.341 19.2476 153.301 19.2679C153.261 19.2882 153.226 19.3188 153.196 19.3594C153.146 19.5425 153.068 19.6697 152.963 19.7409C152.857 19.8121 152.744 19.8477 152.624 19.8477C152.454 19.8477 152.326 19.7892 152.24 19.6722C152.155 19.5553 152.113 19.4001 152.113 19.2069V12.4631C152.113 11.1204 151.659 10.0804 150.751 9.34292C149.843 8.60547 148.422 8.23675 146.486 8.23675C144.981 8.23675 143.725 8.42493 142.717 8.80128C141.709 9.17763 140.952 9.65824 140.445 10.2431C139.939 10.828 139.685 11.4256 139.685 12.0359C139.685 12.6868 139.874 13.1827 140.25 13.5235C140.626 13.8642 141.17 14.0346 141.882 14.0346C142.755 14.0346 143.442 13.7981 143.943 13.3251C144.445 12.8521 144.695 12.2393 144.695 11.4866V10.327C144.695 10.0422 144.783 9.82098 144.959 9.66332C145.134 9.50566 145.352 9.42683 145.613 9.42683C145.894 9.42683 146.117 9.53109 146.283 9.73961C146.448 9.94813 146.531 10.2304 146.531 10.5864L146.531 15.034L146.451 15.0166C146.209 14.9698 145.928 14.9431 145.61 14.9364L145.448 14.9348C143.291 14.9348 141.684 15.301 140.626 16.0333C139.568 16.7657 139.039 17.7879 139.039 19.1001C139.039 20.0969 139.402 20.9157 140.129 21.5565C140.856 22.1973 141.822 22.5177 143.025 22.5177C143.928 22.5177 144.771 22.3321 145.553 21.9608C146.14 21.6824 146.616 21.3167 146.983 20.8637L147.004 20.8373L147.026 20.9056C147.142 21.2354 147.354 21.5308 147.662 21.792L147.757 21.8693C148.314 22.3016 149.099 22.5177 150.112 22.5177ZM144.929 19.6417C145.174 19.9723 145.498 20.1376 145.899 20.1376L145.985 20.1346C146.156 20.1227 146.322 20.075 146.482 19.9916L146.531 19.9638V16.0486L146.456 16.0257C146.285 15.9799 146.085 15.957 145.854 15.957C145.463 15.957 145.149 16.1401 144.914 16.5063C144.678 16.8725 144.56 17.4116 144.56 18.1236C144.56 18.8051 144.683 19.3111 144.929 19.6417ZM160.718 22.5635C162.504 22.5635 163.873 22.1516 164.826 21.3277C165.778 20.5038 166.255 19.3798 166.255 17.9558C166.255 17.0912 166.094 16.3334 165.773 15.6824C165.452 15.0314 164.891 14.4542 164.088 13.9507C163.286 13.4472 162.158 12.9717 160.703 12.5241C160.162 12.3512 159.743 12.1757 159.447 11.9977C159.151 11.8197 158.948 11.629 158.838 11.4256C158.727 11.2221 158.672 11.0034 158.672 10.7695C158.672 10.4237 158.798 10.1439 159.048 9.93033C159.299 9.71672 159.67 9.60992 160.162 9.60992C160.844 9.60992 161.488 9.83878 162.095 10.2965C162.702 10.7542 163.371 11.5374 164.103 12.6462C164.294 12.8801 164.485 13.0505 164.675 13.1573C164.866 13.2641 165.046 13.2971 165.217 13.2565C165.427 13.1954 165.558 13.0556 165.608 12.8369C165.658 12.6182 165.648 12.3054 165.578 11.8985L165.187 9.09117C165.147 8.79619 165.071 8.58767 164.961 8.46561C164.851 8.34355 164.705 8.28252 164.525 8.28252C164.364 8.28252 164.164 8.33847 163.923 8.45035C163.682 8.56224 163.444 8.67667 163.208 8.79365C162.973 8.91062 162.794 8.96911 162.674 8.96911C162.564 8.96911 162.401 8.90808 162.185 8.78602C161.97 8.66396 161.666 8.5419 161.275 8.41984C160.884 8.29778 160.377 8.23675 159.755 8.23675C158.722 8.23675 157.792 8.42493 156.965 8.80128C156.137 9.17763 155.485 9.71418 155.009 10.4109C154.532 11.1077 154.294 11.9392 154.294 12.9055C154.294 13.76 154.472 14.5076 154.828 15.1484C155.184 15.7892 155.728 16.3385 156.461 16.7962C157.193 17.2539 158.116 17.6252 159.229 17.91C159.951 18.1032 160.505 18.2991 160.891 18.4974C161.277 18.6957 161.543 18.9119 161.689 19.1458C161.834 19.3798 161.907 19.6392 161.907 19.924C161.907 20.3003 161.781 20.6106 161.531 20.8547C161.28 21.0988 160.899 21.2209 160.387 21.2209C159.906 21.2209 159.447 21.1166 159.011 20.9081C158.574 20.6996 158.126 20.341 157.664 19.8324C157.203 19.3238 156.686 18.6271 156.115 17.7422C155.944 17.5082 155.751 17.3455 155.535 17.2539C155.32 17.1624 155.102 17.1675 154.881 17.2692C154.67 17.3505 154.535 17.5235 154.475 17.7879C154.414 18.0524 154.43 18.3779 154.52 18.7644L154.986 21.8006C155.056 22.1058 155.157 22.3092 155.287 22.4109C155.417 22.5127 155.558 22.5635 155.708 22.5635C155.879 22.5635 156.087 22.5076 156.333 22.3957L157.07 22.06C157.316 21.9481 157.514 21.8922 157.664 21.8922C157.815 21.8922 158.013 21.9481 158.258 22.06C158.504 22.1719 158.825 22.2838 159.221 22.3957C159.618 22.5076 160.117 22.5635 160.718 22.5635ZM174.981 21.9914C174.319 22.3423 173.537 22.5177 172.634 22.5177C171.109 22.5177 169.963 22.1465 169.196 21.4039C168.429 20.6614 168.045 19.4917 168.045 17.8947V10.9984C168.045 10.7847 168.025 10.622 167.985 10.5101C167.945 10.3982 167.845 10.3067 167.684 10.2355L166.977 10.0066C166.806 9.92524 166.696 9.82607 166.646 9.7091C166.596 9.59212 166.571 9.44718 166.571 9.27426C166.571 9.06065 166.646 8.88519 166.796 8.74788C166.947 8.61056 167.132 8.5419 167.353 8.5419H168.09C168.181 8.5419 168.276 8.5063 168.376 8.4351C168.476 8.3639 168.612 8.22149 168.782 8.00789L171.566 5.67349C171.766 5.42938 171.967 5.24374 172.167 5.1166C172.368 4.98945 172.569 4.92588 172.769 4.92588C173 4.92588 173.181 4.99708 173.311 5.13948L173.352 5.18997C173.455 5.33262 173.507 5.53957 173.507 5.81081L173.506 8.5419H176.651C176.872 8.5419 177.042 8.59021 177.162 8.68685C177.283 8.78348 177.343 8.93351 177.343 9.13694C177.343 9.42175 177.218 9.66587 176.967 9.8693L176.911 9.91133C176.658 10.0867 176.275 10.1744 175.763 10.1744H173.506L173.507 17.1319C173.507 17.8947 173.634 18.4593 173.89 18.8254C174.146 19.1916 174.52 19.3747 175.011 19.3747C175.222 19.3747 175.417 19.3289 175.598 19.2374C175.778 19.1458 175.941 19.0263 176.087 18.8788C176.232 18.7313 176.37 18.5661 176.5 18.383C176.631 18.1999 176.756 18.0168 176.877 17.8337C176.977 17.793 177.065 17.8108 177.14 17.8871C177.215 17.9634 177.248 18.1185 177.238 18.3525C177.167 19.1764 176.939 19.9011 176.553 20.5266C176.167 21.1522 175.643 21.6404 174.981 21.9914ZM184.835 22.5177C186.109 22.5177 187.232 22.2685 188.205 21.7701C189.178 21.2717 189.936 20.608 190.477 19.779C191.019 18.95 191.29 18.0371 191.29 17.0403C191.29 16.847 191.255 16.7097 191.184 16.6284C191.114 16.547 191.029 16.5063 190.929 16.5063C190.858 16.5063 190.776 16.5292 190.68 16.575C190.585 16.6207 190.477 16.7097 190.357 16.842C190.146 17.4929 189.732 18.0015 189.116 18.3677C188.499 18.7339 187.789 18.917 186.987 18.917C185.733 18.917 184.73 18.4872 183.978 17.6277C183.537 17.1239 183.225 16.4531 183.043 15.6155L183.028 15.5451H189.905C190.341 15.5451 190.682 15.4302 190.929 15.2006L190.989 15.1408C191.239 14.8712 191.365 14.5025 191.365 14.0346C191.365 12.9564 191.112 11.9774 190.605 11.0975C190.099 10.2177 189.374 9.52092 188.431 9.00725C187.488 8.49358 186.365 8.23675 185.061 8.23675C183.526 8.23675 182.212 8.5419 181.119 9.1522C180.026 9.7625 179.191 10.6144 178.614 11.7078C178.038 12.8013 177.749 14.0753 177.749 15.5298C177.749 16.9132 178.048 18.1312 178.644 19.184C179.241 20.2367 180.071 21.0556 181.134 21.6404C182.197 22.2253 183.431 22.5177 184.835 22.5177ZM182.849 13.5921C182.849 13.8447 182.857 14.088 182.871 14.322L182.873 14.355H185.211C185.593 14.355 185.783 14.1414 185.783 13.7142C185.783 12.3207 185.63 11.3238 185.324 10.7237C185.018 10.1236 184.69 9.82353 184.339 9.82353C184.068 9.82353 183.822 9.93796 183.602 10.1668C183.381 10.3957 183.2 10.7847 183.06 11.334C182.92 11.8833 182.849 12.636 182.849 13.5921ZM200.482 22.2126C200.723 22.2126 200.906 22.149 201.031 22.0219C201.157 21.8947 201.219 21.7294 201.219 21.526C201.219 21.3531 201.174 21.2031 201.084 21.0759C200.994 20.9488 200.843 20.8699 200.632 20.8394L199.504 20.6106C199.314 20.5699 199.173 20.4656 199.083 20.2978C198.993 20.1299 198.947 19.9036 198.947 19.6188V14.2482C198.947 13.6481 198.983 13.1547 199.053 12.7682C199.123 12.3817 199.226 12.0943 199.361 11.9062C199.497 11.718 199.655 11.6239 199.835 11.6239C200.016 11.6239 200.146 11.69 200.226 11.8223C200.307 11.9545 200.352 12.1376 200.362 12.3715L200.377 12.9818C200.397 13.6735 200.585 14.2075 200.941 14.5839C201.297 14.9602 201.846 15.1484 202.588 15.1484C203.351 15.1484 203.972 14.8737 204.454 14.3245C204.935 13.7752 205.176 12.9157 205.176 11.746C205.176 10.5661 204.945 9.68621 204.484 9.10643C204.023 8.52664 203.361 8.23675 202.498 8.23675C201.786 8.23675 201.129 8.45798 200.527 8.90045C199.925 9.34292 199.441 10.0193 199.075 10.9297C199.014 11.0814 198.958 11.2399 198.908 11.405L198.881 11.4929L198.767 9.12168C198.74 8.8414 198.692 8.63746 198.621 8.50988L198.594 8.46561C198.509 8.34355 198.381 8.28252 198.21 8.28252C198.09 8.28252 197.944 8.30287 197.774 8.34355C197.603 8.38424 197.393 8.45544 197.142 8.55716L192.869 9.79301C192.629 9.88456 192.458 9.9939 192.358 10.121C192.257 10.2482 192.207 10.3931 192.207 10.5559C192.207 10.6983 192.24 10.8153 192.305 10.9068C192.37 10.9984 192.473 11.0848 192.614 11.1662L193.005 11.212C193.135 11.273 193.228 11.3569 193.283 11.4637C193.338 11.5705 193.366 11.746 193.366 11.9901V19.7409C193.366 20.046 193.341 20.2647 193.291 20.397C193.24 20.5292 193.15 20.6258 193.02 20.6868L192.674 20.8242C192.543 20.9157 192.441 21.0149 192.365 21.1217C192.29 21.2285 192.252 21.3633 192.252 21.526C192.252 21.7396 192.315 21.9074 192.441 22.0295C192.566 22.1516 192.739 22.2126 192.96 22.2126H200.482ZM216.324 21.3277C215.372 22.1516 214.002 22.5635 212.217 22.5635C211.615 22.5635 211.116 22.5076 210.72 22.3957C210.324 22.2838 210.003 22.1719 209.757 22.06C209.512 21.9481 209.313 21.8922 209.163 21.8922C209.013 21.8922 208.814 21.9481 208.569 22.06L207.831 22.3957C207.586 22.5076 207.378 22.5635 207.207 22.5635C207.057 22.5635 206.916 22.5127 206.786 22.4109C206.655 22.3092 206.555 22.1058 206.485 21.8006L206.019 18.7644C205.928 18.3779 205.913 18.0524 205.973 17.7879C206.034 17.5235 206.169 17.3505 206.38 17.2692C206.6 17.1675 206.818 17.1624 207.034 17.2539C207.25 17.3455 207.443 17.5082 207.613 17.7422C208.185 18.6271 208.702 19.3238 209.163 19.8324C209.624 20.341 210.073 20.6996 210.509 20.9081C210.946 21.1166 211.405 21.2209 211.886 21.2209C212.398 21.2209 212.779 21.0988 213.03 20.8547C213.28 20.6106 213.406 20.3003 213.406 19.924C213.406 19.6392 213.333 19.3798 213.187 19.1458C213.042 18.9119 212.776 18.6957 212.39 18.4974C212.004 18.2991 211.45 18.1032 210.728 17.91C209.614 17.6252 208.692 17.2539 207.959 16.7962C207.227 16.3385 206.683 15.7892 206.327 15.1484C205.971 14.5076 205.793 13.76 205.793 12.9055C205.793 11.9392 206.031 11.1077 206.508 10.4109C206.984 9.71418 207.636 9.17763 208.463 8.80128C209.291 8.42493 210.221 8.23675 211.254 8.23675C211.876 8.23675 212.383 8.29778 212.774 8.41984C213.165 8.5419 213.468 8.66396 213.684 8.78602C213.9 8.90808 214.063 8.96911 214.173 8.96911C214.293 8.96911 214.471 8.91062 214.707 8.79365C214.943 8.67667 215.181 8.56224 215.422 8.45035C215.662 8.33847 215.863 8.28252 216.023 8.28252C216.204 8.28252 216.349 8.34355 216.46 8.46561C216.57 8.58767 216.645 8.79619 216.685 9.09117L217.077 11.8985C217.147 12.3054 217.157 12.6182 217.107 12.8369C217.057 13.0556 216.926 13.1954 216.716 13.2565C216.545 13.2971 216.364 13.2641 216.174 13.1573C215.983 13.0505 215.793 12.8801 215.602 12.6462C214.87 11.5374 214.201 10.7542 213.594 10.2965C212.987 9.83878 212.342 9.60992 211.66 9.60992C211.169 9.60992 210.798 9.71672 210.547 9.93033C210.296 10.1439 210.171 10.4237 210.171 10.7695C210.171 11.0034 210.226 11.2221 210.336 11.4256C210.447 11.629 210.65 11.8197 210.946 11.9977C211.242 12.1757 211.66 12.3512 212.202 12.5241C213.656 12.9717 214.785 13.4472 215.587 13.9507C216.39 14.4542 216.951 15.0314 217.272 15.6824C217.593 16.3334 217.754 17.0912 217.754 17.9558C217.754 19.3798 217.277 20.5038 216.324 21.3277Z" fill="white"/>
<path fill-rule="evenodd" clip-rule="evenodd" d="M13.2823 4.10471C10.0382 0.863278 5.22953 0.396656 2.56282 3.06623C-0.105272 5.73443 0.361333 10.5433 3.59988 13.7861C4.46386 14.6501 5.45937 15.3106 6.51027 15.7841C6.85503 13.7806 7.84363 11.8545 9.34452 10.2733C8.84745 10.096 8.33792 9.94649 7.80624 9.80111C4.6577 8.93709 3.09312 6.31044 2.72759 3.23101C3.02991 3.59457 3.30517 3.9759 3.57962 4.35612C4.11211 5.09381 4.64154 5.82727 5.35968 6.41844C6.47683 7.33832 7.70308 7.69342 9.04462 8.0819C9.09641 8.0969 9.14838 8.11195 9.20052 8.12708C9.83604 8.31124 10.3885 8.58401 10.8953 8.90248C12.2272 7.92908 13.7295 7.28107 15.2802 7.01383C14.8081 5.96289 14.1463 4.96873 13.2823 4.10471ZM7.79655 16.554C8.00285 14.5476 8.97483 12.5856 10.5325 11.0279C13.7766 7.78646 18.5852 7.31845 21.2519 9.98942C23.92 12.6576 23.4548 17.4665 20.2121 20.7093C18.6545 22.267 16.6925 23.239 14.6862 23.4467C14.419 23.473 14.1546 23.4869 13.8956 23.4869C12.1705 23.4869 10.6294 22.8818 9.49405 21.7464C8.187 20.4407 7.58333 18.5963 7.79655 16.554ZM12.5415 18.2003C13.6049 17.3889 14.7555 17.0677 16.0071 16.7257C19.1557 15.8617 20.7189 13.235 21.0858 10.1556C20.786 10.5171 20.5128 10.8959 20.2403 11.2735C19.7062 12.0138 19.1753 12.7497 18.4537 13.343C17.3331 14.2644 16.104 14.6201 14.7565 15.01L14.7565 15.0101L14.6129 15.0516C11.5322 15.9461 10.0091 18.5506 9.65743 21.5816C9.96091 21.217 10.2389 20.8384 10.5155 20.4619L10.5155 20.4619C11.1158 19.6444 11.7092 18.8364 12.5415 18.2003Z" fill="#0E8784"/>
</svg>
